HIERARCHY
ROOT Hips
{
	OFFSET 0.00000 0.00000 0.00000
	CHANNELS 6 Xposition Yposition Zposition Zrotation Yrotation Xrotation 
	JOINT LHipJoint
	{
		OFFSET 0 0 0
		CHANNELS 3 Zrotation Yrotation Xrotation
		JOINT LeftHip
		{
			OFFSET 1.33213 -1.58186 0.78596
			CHANNELS 3 Zrotation Yrotation Xrotation
			JOINT LeftKnee
			{
				OFFSET 2.29717 -6.31144 0.00000
				CHANNELS 3 Zrotation Yrotation Xrotation
				JOINT LeftAnkle
				{
					OFFSET 2.38430 -6.55082 0.00000
					CHANNELS 3 Zrotation Yrotation Xrotation
					JOINT LeftToe
					{
						OFFSET 0.11863 -0.32594 1.77568
						CHANNELS 3 Zrotation Yrotation Xrotation
						End Site
						{
							OFFSET 0.00000 -0.00000 0.91633
						}
					}
				}
			}
		}
	}
	JOINT RHipJoint
	{
		OFFSET 0 0 0
		CHANNELS 3 Zrotation Yrotation Xrotation
		JOINT RightHip
		{
			OFFSET -1.41575 -1.58186 0.78596
			CHANNELS 3 Zrotation Yrotation Xrotation
			JOINT RightKnee
			{
				OFFSET -2.42012 -6.64922 0.00000
				CHANNELS 3 Zrotation Yrotation Xrotation
				JOINT RightAnkle
				{
					OFFSET -2.47254 -6.79327 0.00000
					CHANNELS 3 Zrotation Yrotation Xrotation
					JOINT RightToe
					{
						OFFSET -0.15219 -0.41813 1.93430
						CHANNELS 3 Zrotation Yrotation Xrotation
						End Site
						{
							OFFSET -0.00000 -0.00000 0.99984
						}
					}
				}
			}
		}
	}
	JOINT lowerback
	{
		OFFSET 0 0 0
		CHANNELS 3 Zrotation Yrotation Xrotation
		JOINT Chest
		{
			OFFSET -0.04717 2.09389 -0.14516
			CHANNELS 3 Zrotation Yrotation Xrotation
			JOINT Chest2
			{
				OFFSET 0.02825 2.09433 -0.11325
				CHANNELS 3 Zrotation Yrotation Xrotation
				JOINT lowerneck
				{
					OFFSET 0 0 0
					CHANNELS 3 Zrotation Yrotation Xrotation
					JOINT Neck
					{
						OFFSET -0.01210 1.39029 0.12448
						CHANNELS 3 Zrotation Yrotation Xrotation
						JOINT Head
						{
							OFFSET 0.09492 1.38365 0.14559
							CHANNELS 3 Zrotation Yrotation Xrotation
							End Site
							{
								OFFSET 0.03402 1.40343 0.03708
							}
						}
					}
				}
				JOINT LeftCollar
				{
					OFFSET 0 0 0
					CHANNELS 3 Zrotation Yrotation Xrotation
					JOINT LeftShoulder
					{
						OFFSET 2.83352 1.10671 -0.20481
CHANNELS 3 Zrotation Xrotation Yrotation
						JOINT LeftElbow
						{
OFFSET 0 -4.771950 -0.000000
CHANNELS 3 Zrotation Xrotation Yrotation
							JOINT LeftWrist
							{
OFFSET 0 -2.984440 0.000000
CHANNELS 3 Zrotation Xrotation Yrotation
								JOINT lhand
								{
									OFFSET 0 0 0
CHANNELS 3 Zrotation Xrotation Yrotation
									JOINT LFingers
									{
OFFSET 0 -0.992280 0.000000
CHANNELS 3 Zrotation Xrotation Yrotation
										End Site
										{
OFFSET 0 -0.800010 0.000000
										}
									}
								}
								JOINT LThumb
								{
OFFSET 0 0.000000 0.000000
CHANNELS 3 Zrotation Xrotation Yrotation
									End Site
									{
OFFSET 0 -0.812220 0.812220
									}
								}
							}
						}
					}
				}
				JOINT RightCollar
				{
					OFFSET 0 0 0
					CHANNELS 3 Zrotation Yrotation Xrotation
					JOINT RightShoulder
					{
						OFFSET -3.23760 1.11106 0.06723
CHANNELS 3 Zrotation Xrotation Yrotation
						JOINT RightElbow
						{
OFFSET 0 -4.620520 0.000000
CHANNELS 3 Zrotation Xrotation Yrotation
							JOINT RightWrist
							{
OFFSET 0 -2.953320 0.000000
CHANNELS 3 Zrotation Xrotation Yrotation
								JOINT rhand
								{
									OFFSET 0 0 0
CHANNELS 3 Zrotation Xrotation Yrotation
									JOINT RFingers
									{
OFFSET 0 -0.990960 0.000000
CHANNELS 3 Zrotation Xrotation Yrotation
										End Site
										{
OFFSET 0 -0.798930 0.000000
										}
									}
								}
								JOINT RThumb
								{
OFFSET 0 0.000000 0.000000
CHANNELS 3 Zrotation Xrotation Yrotation
									End Site
									{
OFFSET 0 -0.811130 0.811130
									}
								}
							}
						}
					}
				}
			}
		}
	}
}
MOTION
Frames: 9
Frame Time: 0.008333333333333333
-1.026500 15.776200 49.896000 -179.345000 -7.025000 -171.022000 0.000000 0.000000 0.000000 -22.453100 3.487000 -5.988700 0.243200 3.173800 8.762900 -0.035500 -15.958600 22.288100 0.543700 4.724300 13.123700 0.000000 0.000000 0.000000 12.472200 8.429200 -32.655300 -2.928200 -10.577900 30.869200 -0.268900 8.683500 -10.318800 -0.016900 -0.838100 2.303500 -6.962500 -3.386900 -10.263900 0.996500 -3.748400 0.596000 4.356500 -2.119800 6.925400 -5.634600 -4.101200 3.713900 10.801300 -4.170500 -12.874300 4.421800 -2.135500 -4.049000 -0.000000 0.000000 0.000000 -0.544700 -2.919700 -4.494300 12.984100 -21.263900 2.447500 -14.229400 3.553700 -18.930100 0.000000 0.000000 0.000000 -7.125000 0.000000 0.000000 -38.496800 45.139300 0.156600 -0.000000 0.000000 0.000000 1.814600 5.304900 -11.559400 -10.657900 -17.762000 -1.670100 1.308100 43.621500 3.812300 0.000000 0.000000 0.000000 7.125000 0.000000 -0.000000 22.401800 33.099000 7.001500
-1.024870 15.855488 49.894455 -179.169090 -6.979006 -171.079492 0.000000 0.000000 0.000000 -22.872194 2.967594 -7.462138 0.560782 4.751497 13.208785 -0.804698 -16.678457 8.858627 3.177457 10.647313 31.401591 0.000000 0.000000 0.000000 12.883314 8.193138 -31.723407 -2.638507 -10.082607 29.247311 -0.239811 8.237633 -9.754687 -0.010636 -0.662877 1.821764 -6.736306 -3.349144 -10.289385 1.024903 -3.723429 0.631182 4.261852 -2.101179 6.960496 -5.562434 -4.074771 3.675286 10.808851 -4.108803 -12.957106 4.411074 -2.104094 -4.074056 0.000000 0.000000 0.000000 -0.449623 -3.004394 -4.693722 13.092907 -21.423163 2.487144 -14.350563 2.933124 -19.308692 0.000000 0.000000 0.000000 -7.125000 0.000000 0.000000 -38.812751 45.432597 0.491429 0.000000 0.000000 0.000000 1.845663 5.305072 -11.511432 -10.655926 -17.758997 -1.669499 1.288021 43.526165 4.013953 0.000000 0.000000 0.000000 7.125000 0.000000 0.000000 22.436639 33.286580 6.903420
-1.024385 15.866523 49.892266 -179.119947 -6.949055 -171.105472 0.000000 0.000000 0.000000 -22.925314 2.815667 -7.867731 0.654911 5.175262 14.409311 -0.995784 -17.341807 6.162391 3.468472 11.416167 33.698051 0.000000 0.000000 0.000000 12.986179 8.161477 -31.446831 -2.555793 -9.938534 28.778136 -0.232995 8.082755 -9.602672 -0.007308 -0.548888 1.508263 -6.631220 -3.329221 -10.308640 1.017640 -3.707411 0.641798 4.196783 -2.089721 6.972961 -5.531020 -4.033230 3.670762 10.869831 -4.025763 -13.032035 4.423767 -2.064093 -4.101906 0.000000 0.000000 0.000000 -0.358055 -3.098399 -4.847593 13.192976 -21.569248 2.523780 -14.676128 2.367481 -19.412982 0.000000 0.000000 0.000000 -7.125000 0.000000 0.000000 -39.130207 45.473938 0.543792 0.000000 0.000000 0.000000 1.883458 5.355377 -11.343860 -10.694131 -17.817944 -1.681146 1.347009 43.323259 4.019583 0.000000 0.000000 0.000000 7.125000 0.000000 0.000000 22.483080 33.288594 6.918641
-1.023898 15.864666 49.890524 -179.198718 -6.929231 -171.123486 0.000000 0.000000 0.000000 -23.016702 2.755559 -8.218414 0.728599 5.450507 15.198772 -1.129928 -18.520011 4.997132 2.893477 10.484358 30.596104 0.000000 0.000000 0.000000 12.918451 8.161701 -31.226932 -2.493415 -9.825517 28.413882 -0.226687 7.955095 -9.465174 -0.005079 -0.456048 1.253076 -6.651377 -3.324604 -10.304550 0.973561 -3.696785 0.638015 4.163360 -2.084160 6.963425 -5.509172 -3.986397 3.715548 10.935366 -3.939643 -13.107584 4.440699 -2.024744 -4.138292 0.000000 0.000000 0.000000 -0.261612 -3.160825 -5.114592 13.265987 -21.675622 2.550689 -14.915734 2.034570 -19.299595 0.000000 0.000000 0.000000 -7.125000 0.000000 0.000000 -39.251610 45.349350 0.402760 0.000000 0.000000 0.000000 1.930685 5.413720 -11.171887 -10.744489 -17.895541 -1.696597 1.406445 43.114314 4.061664 0.000000 0.000000 0.000000 7.125000 0.000000 0.000000 22.539113 33.324249 6.917202
-1.023211 15.863554 49.889411 -179.297159 -6.902334 -171.126811 0.000000 0.000000 0.000000 -23.137498 2.744236 -8.426865 0.768276 5.597058 15.619584 -1.157978 -18.762587 4.760473 2.794600 10.334412 30.086268 0.000000 0.000000 0.000000 12.817269 8.175612 -31.109499 -2.459735 -9.764324 28.216736 -0.221778 7.888840 -9.369863 -0.002370 -0.204611 0.562238 -6.695064 -3.320141 -10.323216 0.926326 -3.681720 0.634881 4.139523 -2.077701 6.968323 -5.470119 -3.942408 3.755118 10.966011 -3.862047 -13.173921 4.443768 -1.989023 -4.171704 0.000000 0.000000 0.000000 -0.170372 -3.220396 -5.373379 13.320776 -21.755361 2.570967 -15.102357 1.800613 -19.089193 0.000000 0.000000 0.000000 -7.125000 0.000000 0.000000 -39.273948 45.152992 0.176605 0.000000 0.000000 0.000000 1.978930 5.445746 -11.017016 -10.798432 -17.978579 -1.713205 1.410408 42.917329 4.129451 0.000000 0.000000 0.000000 7.125000 0.000000 0.000000 22.559187 33.386700 6.887226
-1.021974 15.863042 49.888813 -179.318180 -6.847461 -171.115643 0.000000 0.000000 0.000000 -23.178387 2.746685 -8.420567 0.764497 5.583703 15.581167 -1.086053 -18.124850 5.351599 3.161193 10.951510 32.116488 0.000000 0.000000 0.000000 12.790525 8.221453 -31.127242 -2.462684 -9.769768 28.234174 -0.221746 7.905955 -9.375275 -0.000071 0.053463 -0.146849 -6.670506 -3.301445 -10.385822 0.904779 -3.654309 0.636242 4.104794 -2.063847 6.998626 -5.413631 -3.896960 3.739712 10.953067 -3.788798 -13.201165 4.428069 -1.952766 -4.185233 0.000000 0.000000 0.000000 -0.101199 -3.275178 -5.598055 13.387170 -21.851821 2.595636 -15.264854 1.564187 -18.896612 0.000000 0.000000 0.000000 -7.125000 0.000000 0.000000 -39.288039 44.974485 -0.029603 0.000000 0.000000 0.000000 2.025806 5.452724 -10.841708 -10.863800 -18.079095 -1.733418 1.375613 42.693459 4.136299 0.000000 0.000000 0.000000 7.125000 0.000000 0.000000 22.534267 33.394943 6.873571
-1.019784 15.862722 49.888659 -179.243953 -6.761610 -171.114212 0.000000 0.000000 0.000000 -23.106135 2.703129 -8.413001 0.765308 5.586636 15.589572 -1.090526 -18.186441 5.077356 3.059523 10.783519 31.560718 0.000000 0.000000 0.000000 12.874685 8.292117 -31.124214 -2.460766 -9.766214 28.222817 -0.225132 7.937449 -9.436240 -0.000178 -0.017890 0.049148 -6.558000 -3.265804 -10.453484 0.913488 -3.616652 0.635075 4.054541 -2.042012 7.024003 -5.374358 -3.839660 3.676512 10.925597 -3.707757 -13.173602 4.407926 -1.910348 -4.174750 0.000000 0.000000 0.000000 -0.066866 -3.270927 -5.985831 13.485263 -21.994043 2.632265 -15.241584 1.466941 -18.768074 0.000000 0.000000 0.000000 -7.125000 0.000000 0.000000 -39.195058 44.872742 -0.146770 0.000000 0.000000 0.000000 2.071914 5.460079 -10.614792 -10.946515 -18.206145 -1.759152 1.355567 42.420784 4.043198 0.000000 0.000000 0.000000 7.125000 0.000000 0.000000 22.495505 33.309962 6.910328
-1.017379 15.861698 49.889015 -179.151072 -6.692505 -171.167127 0.000000 0.000000 0.000000 -23.006150 2.673704 -8.385955 0.772881 5.613486 15.667025 -1.156287 -18.815992 4.184461 2.578336 9.978886 28.908519 0.000000 0.000000 0.000000 12.984093 8.347976 -31.034575 -2.451285 -9.748887 28.167218 -0.229932 7.961883 -9.514895 -0.001213 -0.225620 0.619830 -6.418669 -3.230022 -10.445017 0.933160 -3.588087 0.629123 4.002816 -2.022452 7.001049 -5.415133 -3.775877 3.657458 10.942626 -3.621814 -13.155708 4.416291 -1.866057 -4.172021 0.000000 0.000000 0.000000 -0.066071 -3.155200 -6.840427 13.573769 -22.122176 2.665477 -14.643432 1.959924 -18.629322 0.000000 0.000000 0.000000 -7.125000 0.000000 0.000000 -38.648790 44.838366 -0.182930 0.000000 0.000000 0.000000 2.099642 5.469329 -10.401976 -11.019129 -18.317504 -1.781904 1.325924 42.207236 3.935738 0.000000 0.000000 0.000000 7.125000 0.000000 0.000000 22.446134 33.212174 6.950575
-1.014633 15.861441 49.890989 -179.031796 -6.641705 -171.183431 0.000000 0.000000 0.000000 -22.871257 2.699876 -8.444391 0.783350 5.650299 15.773086 -1.193185 -19.200419 3.614084 2.287441 9.437427 27.176193 0.000000 0.000000 0.000000 13.137349 8.370630 -30.992872 -2.436526 -9.721514 28.079520 -0.234051 7.972523 -9.578566 -0.002930 -0.343866 0.944877 -6.260436 -3.194239 -10.472905 0.966626 -3.560714 0.619169 3.953475 -2.003402 6.994528 -5.457952 -3.708688 3.703452 10.997373 -3.507944 -13.285281 4.440833 -1.809165 -4.226081 0.000000 0.000000 0.000000 -0.062295 -3.065272 -7.653387 13.634007 -22.209102 2.688217 -14.005094 2.541285 -18.490825 0.000000 0.000000 0.000000 -7.125000 0.000000 0.000000 -38.069231 44.808246 -0.212448 0.000000 0.000000 0.000000 2.117833 5.421619 -10.231902 -11.061433 -18.382290 -1.795204 1.149070 42.096198 3.824958 0.000000 0.000000 0.000000 7.125000 0.000000 0.000000 22.283439 33.118899 6.947400
